<svg xmlns="http://www.w3.org/2000/svg" xml:space="preserve" style="enable-background:new 0 0 279.31 279.31" version="1.0" viewBox="0 0 279.31 279.31"><g transform="translate(-514.158 -673.923)"><circle cx="653.81" cy="813.58" r="139.66" style="fill:#fff"/>
<title>Phone</title>
<path d="M197.68 173.54c.3 2.04-.42 4.1-1.93 5.51l-18.33 18.18c-.91.98-2 1.77-3.21 2.34a13.6 13.6 0 0 1-3.94 1.24l-.82.06c-.46 0-1.07.06-1.79.06-2.84-.1-5.68-.4-8.48-.89-4.93-.91-9.74-2.39-14.33-4.41a119.48 119.48 0 0 1-19.25-10.55 143.64 143.64 0 0 1-22.87-19.25c-5.83-5.62-11.19-11.7-16.04-18.18-3.78-5.09-7.19-10.45-10.19-16.04-2.3-4.28-4.24-8.75-5.79-13.36a71.184 71.184 0 0 1-2.62-10.34c-.4-2.25-.59-4.54-.55-6.82.1-1.65.14-2.57.14-2.76.21-1.37.63-2.69 1.25-3.93.56-1.21 1.35-2.3 2.33-3.21L89.6 72.87a6.072 6.072 0 0 1 4.42-1.94A5.11 5.11 0 0 1 97.23 72c.93.71 1.72 1.57 2.34 2.56l14.74 27.97c.83 1.46 1.08 3.18.7 4.81a8.656 8.656 0 0 1-2.34 4.42l-6.75 6.75c-.23.25-.4.56-.49.89-.12.34-.19.7-.2 1.07.51 2.31 1.35 4.54 2.48 6.61a60.83 60.83 0 0 0 5.1 8.06c2.96 3.92 6.23 7.58 9.79 10.96 3.4 3.58 7.09 6.87 11.03 9.85 2.55 1.92 5.24 3.65 8.05 5.17 1.56.88 3.23 1.55 4.96 2l1.72.34c.31-.03.61-.09.9-.2.33-.09.63-.26.89-.48l7.85-8a8.462 8.462 0 0 1 5.79-2.19c1.29-.06 2.58.22 3.72.82h.15l26.59 15.71c1.75.95 3.01 2.61 3.44 4.56v-.14z" style="fill:#338aff" transform="translate(521.129 681.232)"/></g></svg>